<svg xmlns:xlink="http://www.w3.org/1999/xlink" xmlns="http://www.w3.org/2000/svg" fill="none" viewBox="0 0 94 48" height="48" width="94">
<g id="Group">
<path fill="#EDF222" d="M91.9887 3.39568C91.8868 3.38003 91.785 3.36438 91.6832 3.36438C91.0722 3.34091 90.4846 3.57563 89.8188 4.00595C89.5995 4.14678 89.3645 4.31108 89.1216 4.49886C88.2678 5.14042 87.2573 6.01671 85.9335 7.04165C83.2858 9.07587 80.1368 10.7111 77.0661 12.0255C75.8676 12.5419 74.6691 13.0113 73.5255 13.4338C73.4001 13.4808 73.2748 13.4964 73.1495 13.4886C72.7735 13.4729 72.4366 13.2304 72.3035 12.8548L72.139 12.3854C72.0763 12.2055 72.0685 12.0177 72.1155 11.8377C72.1781 11.603 72.3192 11.3996 72.5306 11.2666C72.5855 11.2353 72.6403 11.204 72.703 11.1805C75.382 10.1947 77.9748 8.95852 80.4658 7.57367C81.8131 6.82257 86.2468 4.92918 86.85 2.89495C86.9361 2.58981 86.944 2.2925 86.8421 1.98737C86.8186 1.90913 86.7873 1.83871 86.7482 1.76047C86.521 1.32233 86.0118 1.04067 85.3303 0.86854C85.2285 0.845069 85.1267 0.821597 85.0248 0.805949C84.7115 0.751181 84.359 0.712061 83.9908 0.688589C83.6226 0.665117 83.231 0.665118 82.8237 0.672941C80.3797 0.727709 77.3795 1.29103 75.5073 1.67441C74.9511 1.79177 74.3871 1.91695 73.8231 2.04996C72.6951 2.31597 71.575 2.61328 70.4626 2.94189C69.9065 3.10619 69.3581 3.27832 68.8176 3.45827C67.9951 3.73211 67.3998 3.99812 67.5408 4.87441C67.6896 5.77416 68.2223 7.5815 68.3633 8.43431C68.4338 8.83333 68.1518 9.248 67.721 9.45142C67.4781 9.56878 67.2118 9.61573 66.9455 9.61573C66.358 9.6079 65.7392 9.34189 65.3083 8.90375C65.0576 8.66121 64.5485 8.15265 64.5485 8.15265C63.6163 7.11988 62.7546 6.2436 61.9321 5.21866C61.4073 4.5771 60.9295 4.13113 60.0208 4.13896C59.8876 4.13896 59.7153 4.13896 59.5038 4.13896C59.3001 4.13896 59.0573 4.13896 58.7988 4.13896C56.1825 4.24849 52.7045 4.33456 50.5346 4.3815C50.2213 4.38932 49.9393 4.39715 49.6886 4.39715C49.0228 4.41279 48.5841 4.42062 48.5058 4.42062C47.4483 4.45191 46.6728 4.7727 46.7276 5.81328C46.7825 6.79128 47.1506 8.80204 47.2055 9.73309C47.229 10.1712 46.8843 10.5859 46.3986 10.758C46.1793 10.8363 45.9521 10.8676 45.725 10.8597C45.0356 10.8363 44.3306 10.4607 43.8685 9.88957C43.6256 9.60008 43.1321 8.98981 43.1321 8.98981C42.2548 7.7771 41.4166 6.72869 40.6568 5.53944C40.1633 4.78834 39.7011 4.24849 38.7298 4.1546C38.2206 4.09984 37.2728 3.9903 36.1213 3.85729C36.0038 3.84165 35.8863 3.83382 35.7688 3.81817C35.526 3.78688 35.2831 3.76341 35.0246 3.73211C34.8993 3.71646 34.7661 3.70081 34.6408 3.68517C32.3065 3.41915 29.557 3.11402 27.6456 2.94971C27.5908 2.94971 27.5281 2.94189 27.4733 2.94189C26.6273 2.94189 26.0163 3.23138 25.9536 4.13113C25.891 5.10913 26.0085 7.15118 25.9458 8.07441C25.9145 8.51255 25.5228 8.88028 25.0215 8.98981C24.9118 9.01328 24.7943 9.02893 24.6768 9.02893C23.8778 9.04458 23.0631 8.53602 22.6088 7.82404C22.4051 7.50326 21.99 6.84605 21.99 6.84605C21.2615 5.53162 20.5643 4.39715 19.9533 3.12184C19.5616 2.31597 19.1621 1.72918 18.2065 1.51793C17.8461 1.43969 17.4388 1.35363 17.0158 1.27539C16.914 1.25191 16.8043 1.23627 16.6946 1.21279C15.6763 1.02502 14.5718 0.852892 13.6396 0.704237C13.4908 0.680765 13.3498 0.657293 13.2088 0.633822C12.8015 0.57123 12.3863 0.49299 11.979 0.422575C11.7753 0.383455 11.5638 0.344335 11.3601 0.313039C10.3261 0.133088 9.2843 -0.031215 8.24247 -0.0155671C7.88214 -0.00774316 7.4278 0.0470246 7.03614 0.180032C6.97347 0.203504 6.9108 0.226976 6.84814 0.258271C6.2998 0.508638 5.93164 0.94678 6.24497 1.69788C6.29197 1.81524 6.35464 1.92477 6.42514 2.02649C6.64447 2.33162 6.94997 2.58199 7.25547 2.80888C7.44347 2.94971 7.6393 3.09054 7.83514 3.23138C10.7491 5.2969 14.0078 6.87734 16.6163 9.42013C17.7443 10.5155 18.418 12.3072 19.2796 14.3023C19.9846 15.9453 20.7915 17.8074 21.8646 19.5287C21.896 19.5756 21.9273 19.6226 21.9586 19.6773C21.9743 19.7008 21.9978 19.7321 22.0135 19.7634C22.1388 19.9355 22.2955 20.1311 22.4913 20.3033C22.5226 20.3346 22.554 20.358 22.5853 20.3893C22.7811 20.5458 23.0083 20.671 23.2511 20.7101C23.3765 20.7336 23.5018 20.7727 23.6193 20.8431C23.682 20.8744 23.7368 20.9135 23.7916 20.9526C24.0658 21.1561 24.2851 21.4612 24.3791 21.7585C24.4105 21.8524 24.4261 21.9463 24.434 22.0402C24.4575 22.3218 24.387 22.6192 24.199 22.8382C24.011 23.0573 23.7446 23.1199 23.4626 23.1277C23.353 23.1277 23.2355 23.1277 23.1336 23.1121C23.0788 23.1042 23.024 23.1042 22.977 23.0964C22.8281 23.0808 22.6793 23.0416 22.5305 23.0025C22.3816 22.9634 22.2406 22.9165 22.0996 22.8617C22.0056 22.8226 21.9116 22.7835 21.8255 22.7365C20.9873 22.314 20.3293 21.5942 19.8358 20.8118C18.6608 18.9419 17.8148 16.9859 17.0785 15.2568C16.303 13.4573 15.6371 11.9003 14.846 11.0397C14.6031 10.7737 14.3446 10.5311 14.0705 10.2964C13.9373 10.1791 13.7963 10.0695 13.6475 9.95216C12.9346 9.39666 12.1591 8.91157 11.4228 8.41866C10.7491 7.9727 10.1146 7.49543 9.4723 7.01035C8.82997 6.52526 8.19547 6.05583 7.51397 5.62551C6.7698 5.15607 6.02564 4.68663 5.28147 4.2172C4.5373 3.74776 3.79314 3.27832 3.04897 2.80888C2.73564 2.61328 2.38314 2.40986 2.03064 2.34727C1.96014 2.33162 1.88964 2.33162 1.81914 2.3238C1.67814 2.3238 1.54497 2.34727 1.4118 2.40986C1.26297 2.48028 1.14547 2.58199 1.05147 2.70717C1.02014 2.74629 0.988802 2.79323 0.965302 2.84018C0.863469 3.02795 0.800802 3.24702 0.792969 3.45827C0.792969 3.53651 0.792969 3.61475 0.792969 3.70081C0.808635 4.67099 1.1768 5.78981 1.65464 6.87734C2.27347 8.44213 2.99414 9.8348 2.99414 9.8348C15.7625 37.5238 40.743 37.8602 47.2916 37.8602C65.183 37.8602 81.7661 30.404 91.6361 9.95998C91.9182 9.38101 92.2628 8.64556 92.5527 7.87098C92.584 7.78492 92.6153 7.69886 92.6466 7.61279C92.7406 7.3546 92.8268 7.08859 92.8973 6.8304C92.9208 6.74433 92.9443 6.65827 92.9678 6.57221C93.0148 6.40008 93.054 6.22795 93.0853 6.06365C93.101 5.97759 93.1167 5.89935 93.1245 5.81328C93.148 5.64898 93.1637 5.4925 93.1793 5.33602C93.1871 5.25778 93.1871 5.17954 93.1871 5.10913C93.2028 4.23284 92.8817 3.55216 91.9887 3.39568ZM31.1863 12.9957C31.9931 13.0974 32.8548 13.2069 33.693 13.3086C35.0795 13.4808 36.3876 13.6529 37.359 13.7624C40.3826 14.0989 41.6673 15.8592 42.0903 16.4382L43.704 18.6524C44.7771 20.1233 45.8503 21.5942 46.9235 23.0651C48.122 24.7003 48.8975 25.6001 49.9236 25.8035C50.0725 25.8348 50.2213 25.913 50.3388 26.0147C50.3466 26.0226 50.3545 26.0304 50.3623 26.0382C50.4171 26.093 50.472 26.1478 50.519 26.2103C50.5738 26.2886 50.6208 26.3668 50.6521 26.4451C50.7461 26.6798 50.754 26.9771 50.6835 27.2588C50.6365 27.4622 50.5503 27.65 50.4406 27.8064C50.425 27.8299 50.4015 27.8612 50.378 27.8847C50.19 28.0959 49.9236 28.2211 49.6025 28.1663C49.1168 28.0725 48.6781 27.916 48.2786 27.7204C46.8373 27.0006 45.866 25.6861 44.9808 24.4813C43.8998 23.0103 42.8266 21.5316 41.7535 20.0607L40.1398 17.8544C39.8108 17.4084 39.051 16.36 37.077 16.1409C36.09 16.0314 34.774 15.8671 33.3796 15.6871C32.753 15.6089 32.1106 15.5228 31.4918 15.4524C31.2881 15.4289 31.0845 15.4055 30.8808 15.3742C30.7241 15.3585 30.5831 15.3037 30.4578 15.2333C30.0818 15.0143 29.8468 14.5918 29.9016 14.1302L29.9173 13.9893C29.98 13.4495 30.4186 13.0426 30.9435 13.0035C31.0375 12.98 31.108 12.9879 31.1863 12.9957ZM52.4695 13.9346C52.822 13.8876 53.1901 13.8485 53.5661 13.8094C54.6941 13.6842 55.9083 13.5825 56.958 13.4886C58.0311 13.3947 58.9476 13.3086 59.5116 13.2382C59.8406 13.1991 60.2323 13.16 60.6553 13.16C61.9243 13.1522 63.4675 13.426 64.3056 14.6074C65.3005 16.0157 65.9741 16.892 66.6243 17.7448C67.016 18.2534 67.3841 18.7385 67.7993 19.3096C68.8725 20.7727 69.7341 21.1091 70.2981 21.1482C70.4 21.1561 70.494 21.1795 70.5801 21.2108C70.6663 21.25 70.7525 21.2969 70.823 21.3595C70.9718 21.4847 71.0815 21.649 71.1363 21.8368L71.2773 22.3453C71.4183 22.8382 71.1363 23.339 70.6741 23.4876C70.588 23.5189 70.5018 23.5346 70.4 23.5346H70.3921H70.3843C69.977 23.5346 69.5383 23.472 69.084 23.3233C68.0813 22.9947 66.969 22.228 65.8645 20.7179C65.465 20.1702 65.0968 19.7008 64.713 19.1923C64.0471 18.3238 63.3578 17.424 62.3395 15.9766C62.1671 15.7341 61.5953 15.5463 60.7415 15.5385C60.4595 15.5385 60.1461 15.5541 59.8015 15.6011C59.1905 15.6793 58.2505 15.7654 57.1538 15.8592C55.7751 15.9844 54.1145 16.1253 52.7671 16.2974C52.7045 16.3052 52.6418 16.3052 52.587 16.3052C52.5243 16.2974 52.4695 16.2896 52.4146 16.2739C52.0778 16.18 51.8115 15.8984 51.7488 15.5306L51.6626 14.983C51.6 14.5683 51.8271 14.1771 52.1875 14.0128C52.2815 13.9815 52.3755 13.9502 52.4695 13.9346Z" id="Vector"/>
<g id="Group_2">
<path fill="#0E2D68" d="M2.87562 34.2607L0.0399497 29.981C-0.0618836 29.8167 0.0399497 29.6055 0.243616 29.6055H1.91212C2.01395 29.6055 2.07662 29.6681 2.11578 29.7228L3.90178 32.3517L5.68778 29.7228C5.72695 29.6681 5.77395 29.6055 5.89145 29.6055H7.55995C7.76362 29.6055 7.86545 29.8089 7.76362 29.981L4.88878 34.2529V38.3448C4.88878 38.47 4.77128 38.5874 4.64595 38.5874H3.12628C2.98528 38.5874 2.88345 38.47 2.88345 38.3448V34.2607H2.87562Z" id="Vector_2"/>
<path fill="#0E2D68" d="M9.98047 29.848C9.98047 29.7228 10.0823 29.6055 10.2233 29.6055H15.5421C15.6831 29.6055 15.785 29.7228 15.785 29.848V31.2485C15.785 31.3737 15.6831 31.491 15.5421 31.491H11.9858V33.0793H14.9155C15.0408 33.0793 15.1583 33.1967 15.1583 33.3218V34.7223C15.1583 34.8632 15.0408 34.9649 14.9155 34.9649H11.9858V36.694H15.5421C15.6831 36.694 15.785 36.8113 15.785 36.9365V38.337C15.785 38.4622 15.6831 38.5796 15.5421 38.5796H10.2233C10.0823 38.5796 9.98047 38.4622 9.98047 38.337V29.848Z" id="Vector_3"/>
<path fill="#0E2D68" d="M18.6836 29.848C18.6836 29.7228 18.7854 29.6055 18.9264 29.6055H20.4539C20.5793 29.6055 20.6968 29.7228 20.6968 29.848V36.694H23.7518C23.8928 36.694 23.9946 36.8113 23.9946 36.9365V38.337C23.9946 38.4622 23.8928 38.5796 23.7518 38.5796H18.9264C18.7854 38.5796 18.6836 38.4622 18.6836 38.337V29.848Z" id="Vector_4"/>
<path fill="#0E2D68" d="M26.4219 29.848C26.4219 29.7228 26.5237 29.6055 26.6647 29.6055H28.2C28.3254 29.6055 28.4429 29.7228 28.4429 29.848V36.694H31.4979C31.6389 36.694 31.7407 36.8113 31.7407 36.9365V38.337C31.7407 38.4622 31.6389 38.5796 31.4979 38.5796H26.6725C26.5315 38.5796 26.4297 38.4622 26.4297 38.337V29.848H26.4219Z" id="Vector_5"/>
<path fill="#0E2D68" d="M38.0708 29.4805C40.6402 29.4805 42.6925 31.546 42.6925 34.1123C42.6925 36.6785 40.6402 38.7127 38.0708 38.7127C35.5015 38.7127 33.4648 36.6707 33.4648 34.1123C33.4648 31.546 35.5015 29.4805 38.0708 29.4805ZM38.0708 36.6629C39.4808 36.6629 40.6402 35.5049 40.6402 34.1123C40.6402 32.7039 39.4808 31.5382 38.0708 31.5382C36.6687 31.5382 35.5172 32.7039 35.5172 34.1123C35.5172 35.5049 36.6687 36.6629 38.0708 36.6629Z" id="Vector_6"/>
<path fill="#0E2D68" d="M44.5728 29.9186C44.518 29.7386 44.6276 29.6135 44.8 29.6135H46.304C46.4058 29.6135 46.5076 29.6995 46.539 29.7934L47.6435 34.1435H47.6983L49.688 29.6291C49.7271 29.5509 49.8055 29.4883 49.9073 29.4883H50.1423C50.2598 29.4883 50.3382 29.5509 50.3617 29.6291L52.3513 34.1435H52.4061L53.5106 29.7934C53.5341 29.7074 53.636 29.6135 53.7456 29.6135H55.2262C55.4063 29.6135 55.5082 29.7386 55.4533 29.9186L53.025 38.5406C53.0015 38.6423 52.8997 38.7206 52.79 38.7206H52.5863C52.5001 38.7206 52.4061 38.658 52.367 38.5797L50.017 33.3377H49.9778L47.6435 38.5797C47.6043 38.658 47.5182 38.7206 47.4242 38.7206H47.2205C47.1186 38.7206 47.0168 38.6423 46.9855 38.5406L44.5728 29.9186Z" id="Vector_7"/>
<path fill="#0E2D68" d="M62.0703 29.848C62.0703 29.7228 62.1721 29.6055 62.3131 29.6055H63.8406C63.966 29.6055 64.0835 29.7228 64.0835 29.848V36.694H67.1385C67.2795 36.694 67.3813 36.8113 67.3813 36.9365V38.337C67.3813 38.4622 67.2795 38.5796 67.1385 38.5796H62.3131C62.1721 38.5796 62.0703 38.4622 62.0703 38.337V29.848Z" id="Vector_8"/>
<path fill="#0E2D68" d="M69.8125 29.848C69.8125 29.7228 69.9143 29.6055 70.0553 29.6055H75.3742C75.5152 29.6055 75.617 29.7228 75.617 29.848V31.2485C75.617 31.3737 75.5152 31.491 75.3742 31.491H71.8178V33.0793H74.7475C74.8728 33.0793 74.9903 33.1967 74.9903 33.3218V34.7223C74.9903 34.8632 74.8728 34.9649 74.7475 34.9649H71.8178V36.694H75.3742C75.5152 36.694 75.617 36.8113 75.617 36.9365V38.337C75.617 38.4622 75.5152 38.5796 75.3742 38.5796H70.0553C69.9143 38.5796 69.8125 38.4622 69.8125 38.337V29.848Z" id="Vector_9"/>
<path fill="#0E2D68" d="M77.3624 38.2511L81.381 29.6213C81.4201 29.5431 81.5063 29.4805 81.6003 29.4805H81.7256C81.8118 29.4805 81.9058 29.5431 81.9449 29.6213L85.9635 38.2511C86.0418 38.4154 85.9399 38.5876 85.7441 38.5876H84.3185C84.0835 38.5876 83.9816 38.5093 83.8719 38.2668L83.4098 37.2575H79.9161L79.4539 38.2824C79.3913 38.4389 79.2503 38.5876 78.9918 38.5876H77.5818C77.3859 38.5876 77.2841 38.4154 77.3624 38.2511ZM82.6343 35.5049L81.6551 33.3924H81.6394L80.6759 35.5049H82.6343Z" id="Vector_10"/>
<path fill="#0E2D68" d="M88.1953 29.848C88.1953 29.7228 88.2971 29.6055 88.4381 29.6055H93.757C93.898 29.6055 93.9998 29.7228 93.9998 29.848V31.2485C93.9998 31.3737 93.898 31.491 93.757 31.491H90.2006V33.3375H93.1303C93.2557 33.3375 93.3731 33.4549 93.3731 33.58V34.9805C93.3731 35.1057 93.2557 35.2231 93.1303 35.2231H90.2006V38.337C90.2006 38.4622 90.0831 38.5796 89.9578 38.5796H88.4381C88.2971 38.5796 88.1953 38.4622 88.1953 38.337V29.848Z" id="Vector_11"/>
</g>
<g id="Group_3">
<path fill="#0E2D68" d="M27.543 44.3224C27.543 44.2676 27.59 44.2207 27.6448 44.2207H28.2793C28.3342 44.2207 28.3812 44.2676 28.3812 44.3224V45.6603H29.9087V44.3224C29.9087 44.2676 29.9478 44.2207 30.0105 44.2207H30.645C30.6998 44.2207 30.7468 44.2676 30.7468 44.3224V47.8432C30.7468 47.898 30.6998 47.9449 30.645 47.9449H30.0027C29.9478 47.9449 29.9008 47.898 29.9008 47.8432V46.4427H28.3733V47.8432C28.3733 47.898 28.3342 47.9449 28.2715 47.9449H27.637C27.5822 47.9449 27.5352 47.898 27.5352 47.8432V44.3224H27.543Z" id="Vector_12"/>
<path fill="#0E2D68" d="M32.3615 47.812L34.03 44.2286C34.0457 44.1973 34.0848 44.1738 34.124 44.1738H34.1788C34.218 44.1738 34.2572 44.1973 34.2728 44.2286L35.9413 47.812C35.9727 47.8824 35.9335 47.9528 35.8473 47.9528H35.252C35.158 47.9528 35.111 47.9215 35.064 47.8198L34.876 47.3973H33.4268L33.2388 47.8198C33.2153 47.8824 33.1527 47.945 33.0508 47.945H32.4633C32.3693 47.9528 32.3223 47.8824 32.3615 47.812ZM34.547 46.6697L34.1397 45.7934H34.1318L33.7323 46.6697H34.547Z" id="Vector_13"/>
<path fill="#0E2D68" d="M37.9126 44.2521C37.9204 44.2051 37.9674 44.166 38.0066 44.166H38.0928C38.1163 44.166 38.1711 44.1895 38.1868 44.2208L39.4244 46.521H39.4323L40.6699 44.2208C40.6856 44.1895 40.7326 44.166 40.7639 44.166H40.8501C40.8893 44.166 40.9441 44.2051 40.9441 44.2521L41.5473 47.8276C41.5551 47.898 41.5081 47.945 41.4454 47.945H40.8188C40.7718 47.945 40.7248 47.9059 40.7169 47.8589L40.4741 46.2159H40.4663L39.5733 47.9372C39.5576 47.9685 39.5106 47.9919 39.4793 47.9919H39.3853C39.3539 47.9919 39.3069 47.9685 39.2913 47.9372L38.3904 46.2159H38.3826L38.1476 47.8589C38.1398 47.898 38.1006 47.945 38.0458 47.945H37.4191C37.3564 47.945 37.3094 47.898 37.3173 47.8276L37.9126 44.2521Z" id="Vector_14"/>
<path fill="#0E2D68" d="M43.772 44.2521C43.7798 44.2051 43.8268 44.166 43.866 44.166H43.9521C43.9756 44.166 44.0305 44.1895 44.0461 44.2208L45.2838 46.521H45.2916L46.5293 44.2208C46.545 44.1895 46.592 44.166 46.6233 44.166H46.7095C46.7486 44.166 46.8035 44.2051 46.8035 44.2521L47.4066 47.8276C47.4145 47.898 47.3675 47.945 47.3048 47.945H46.6781C46.6311 47.945 46.5841 47.9059 46.5763 47.8589L46.3335 46.2159H46.3256L45.4326 47.9372C45.417 47.9685 45.37 47.9919 45.3386 47.9919H45.2446C45.2133 47.9919 45.1663 47.9685 45.1506 47.9372L44.2498 46.2159H44.242L44.007 47.8589C43.9991 47.898 43.96 47.945 43.9051 47.945H43.2785C43.2158 47.945 43.1688 47.898 43.1766 47.8276L43.772 44.2521Z" id="Vector_15"/>
<path fill="#0E2D68" d="M50.9113 44.1738C51.9767 44.1738 52.8305 45.0345 52.8305 46.0985C52.8305 47.1626 51.9767 48.0076 50.9113 48.0076C49.846 48.0076 49 47.1626 49 46.0985C49 45.0266 49.846 44.1738 50.9113 44.1738ZM50.9113 47.1469C51.4988 47.1469 51.9767 46.6697 51.9767 46.0907C51.9767 45.5039 51.4988 45.0188 50.9113 45.0188C50.3317 45.0188 49.8538 45.5039 49.8538 46.0907C49.8538 46.6697 50.3317 47.1469 50.9113 47.1469Z" id="Vector_16"/>
<path fill="#0E2D68" d="M56.3059 44.1738C56.8386 44.1738 57.2303 44.3381 57.5984 44.6667C57.6454 44.7059 57.6454 44.7763 57.6063 44.8154L57.1911 45.2457C57.1519 45.2848 57.0971 45.2848 57.0579 45.2457C56.8621 45.0736 56.6036 44.9719 56.3373 44.9719C55.7341 44.9719 55.2954 45.4726 55.2954 46.0672C55.2954 46.6618 55.7419 47.1469 56.3451 47.1469C56.5958 47.1469 56.8699 47.053 57.0579 46.8887C57.0971 46.8574 57.1676 46.8575 57.1989 46.8966L57.6141 47.3347C57.6533 47.3738 57.6454 47.4442 57.6063 47.4755C57.2459 47.8276 56.7838 47.9919 56.3138 47.9919C55.2484 47.9919 54.3868 47.1469 54.3868 46.0829C54.3789 45.0266 55.2406 44.1738 56.3059 44.1738Z" id="Vector_17"/>
<path fill="#0E2D68" d="M59.4258 44.3537C59.4258 44.2833 59.4806 44.2285 59.5511 44.2285H60.1778C60.2483 44.2285 60.3031 44.2833 60.3031 44.3537V45.7542L61.486 44.2833C61.5095 44.2598 61.5565 44.2285 61.5878 44.2285H62.2614C62.3633 44.2285 62.4181 44.3459 62.3554 44.4241L61.1099 45.9811L62.4651 47.7493C62.52 47.8275 62.4651 47.9449 62.3633 47.9449H61.627C61.5878 47.9449 61.5408 47.9214 61.5329 47.9058L60.3031 46.2315V47.8197C60.3031 47.8901 60.2483 47.9449 60.1778 47.9449H59.5511C59.4728 47.9449 59.4258 47.8901 59.4258 47.8197V44.3537Z" id="Vector_18"/>
<path fill="#0E2D68" d="M63.9766 47.4442L64.2273 47.0061C64.2665 46.9357 64.3683 46.9513 64.4075 46.9748C64.431 46.9826 64.8148 47.2643 65.1673 47.2643C65.3788 47.2643 65.5355 47.1313 65.5355 46.9435C65.5355 46.7166 65.3475 46.5523 64.9871 46.4037C64.5328 46.2237 63.9531 45.8638 63.9531 45.2301C63.9531 44.7059 64.3605 44.1738 65.183 44.1738C65.7391 44.1738 66.1621 44.4555 66.3266 44.5729C66.3893 44.612 66.3815 44.7059 66.358 44.745L66.0838 45.1518C66.0446 45.2066 65.9506 45.2614 65.9036 45.2222C65.8566 45.1988 65.465 44.9015 65.1438 44.9015C64.9558 44.9015 64.807 45.0266 64.807 45.1753C64.807 45.3709 64.9636 45.5196 65.3866 45.6917C65.8018 45.856 66.4598 46.1846 66.4598 46.9044C66.4598 47.4521 65.982 48.0076 65.1986 48.0076C64.5093 48.0076 64.1255 47.7181 64.0001 47.6007C63.9531 47.5381 63.9375 47.5147 63.9766 47.4442Z" id="Vector_19"/>
</g>
<g id="Group_4">
<g id="Group_5">
<path fill="#0E2D68" d="M78.8017 47.1707H77.4152C77.376 47.1707 77.3369 47.155 77.3134 47.1159L76.1305 45.5433C76.0679 45.4572 76.1305 45.332 76.2324 45.332H77.6189C77.658 45.332 77.6972 45.3477 77.7207 45.3868L78.9035 46.9594C78.9662 47.0455 78.9035 47.1707 78.8017 47.1707Z" id="Vector_20"/>
<path fill="#0E2D68" d="M75.8173 47.1707H74.4308C74.3917 47.1707 74.3525 47.155 74.329 47.1159L73.1462 45.5433C73.0835 45.4572 73.1462 45.332 73.248 45.332H74.6345C74.6737 45.332 74.7128 45.3477 74.7363 45.3868L75.9192 46.9594C75.9818 47.0455 75.927 47.1707 75.8173 47.1707Z" id="Vector_21"/>
<path fill="#0E2D68" d="M72.8329 47.1707H71.4464C71.4073 47.1707 71.3681 47.155 71.3446 47.1159L70.1618 45.5433C70.0991 45.4572 70.1618 45.332 70.2636 45.332H71.6501C71.6893 45.332 71.7284 45.3477 71.7519 45.3868L72.9348 46.9594C73.0053 47.0455 72.9426 47.1707 72.8329 47.1707Z" id="Vector_22"/>
<path fill="#0E2D68" d="M81.7783 47.1707H80.3918C80.3526 47.1707 80.3134 47.155 80.2899 47.1159L79.1071 45.5433C79.0444 45.4572 79.1071 45.332 79.2089 45.332H80.5954C80.6346 45.332 80.6737 45.3477 80.6972 45.3868L81.8801 46.9594C81.9506 47.0455 81.8879 47.1707 81.7783 47.1707Z" id="Vector_23"/>
<path fill="#0E2D68" d="M84.7626 47.1707H83.3761C83.337 47.1707 83.2978 47.155 83.2743 47.1159L82.0915 45.5433C82.0288 45.4572 82.0915 45.332 82.1933 45.332H83.5798C83.619 45.332 83.6581 45.3477 83.6816 45.3868L84.8645 46.9594C84.935 47.0455 84.8723 47.1707 84.7626 47.1707Z" id="Vector_24"/>
<path fill="#0E2D68" d="M87.747 47.1707H86.3605C86.3213 47.1707 86.2822 47.155 86.2587 47.1159L85.0758 45.5433C85.0132 45.4572 85.0758 45.332 85.1777 45.332H86.5642C86.6033 45.332 86.6425 45.3477 86.666 45.3868L87.8488 46.9594C87.9193 47.0455 87.8567 47.1707 87.747 47.1707Z" id="Vector_25"/>
<path fill="#0E2D68" d="M90.7314 47.1707H89.3449C89.3057 47.1707 89.2666 47.155 89.2431 47.1159L88.0602 45.5433C87.9975 45.4572 88.0602 45.332 88.1621 45.332H89.5485C89.5877 45.332 89.6269 45.3477 89.6504 45.3868L90.8332 46.9594C90.8959 47.0455 90.8411 47.1707 90.7314 47.1707Z" id="Vector_26"/>
<path fill="#0E2D68" d="M93.7158 47.1707H92.3293C92.2901 47.1707 92.2509 47.155 92.2274 47.1159L91.0446 45.5433C90.9819 45.4572 91.0446 45.332 91.1464 45.332H92.5329C92.5721 45.332 92.6113 45.3477 92.6348 45.3868L93.8176 46.9594C93.8803 47.0455 93.8176 47.1707 93.7158 47.1707Z" id="Vector_27"/>
</g>
<g id="Group_6">
<path fill="#0E2D68" d="M8.81339 47.1707H7.43472C7.39556 47.1707 7.35639 47.155 7.33289 47.1159L6.15006 45.5433C6.08739 45.4572 6.15006 45.332 6.25189 45.332H7.63839C7.67756 45.332 7.71672 45.3477 7.74022 45.3868L8.92306 46.9594C8.98572 47.0455 8.92306 47.1707 8.81339 47.1707Z" id="Vector_28"/>
<path fill="#0E2D68" d="M5.83685 47.1707H4.45035C4.41118 47.1707 4.37202 47.155 4.34852 47.1159L3.16568 45.5433C3.10302 45.4572 3.16568 45.332 3.26752 45.332H4.65402C4.69318 45.332 4.73235 45.3477 4.75585 45.3868L5.93868 46.9594C6.00135 47.0455 5.93868 47.1707 5.83685 47.1707Z" id="Vector_29"/>
<path fill="#0E2D68" d="M2.85247 47.1707H1.46597C1.42681 47.1707 1.38764 47.155 1.36414 47.1159L0.181307 45.5433C0.118641 45.4572 0.181307 45.332 0.283141 45.332H1.66964C1.70881 45.332 1.74797 45.3477 1.77147 45.3868L2.95431 46.9594C3.01697 47.0455 2.96214 47.1707 2.85247 47.1707Z" id="Vector_30"/>
<path fill="#0E2D68" d="M11.7978 47.1707H10.4113C10.3721 47.1707 10.333 47.155 10.3095 47.1159L9.12662 45.5433C9.06395 45.4572 9.12662 45.332 9.22845 45.332H10.615C10.6541 45.332 10.6933 45.3477 10.7168 45.3868L11.8996 46.9594C11.9701 47.0455 11.9075 47.1707 11.7978 47.1707Z" id="Vector_31"/>
<path fill="#0E2D68" d="M14.7822 47.1707H13.3957C13.3565 47.1707 13.3173 47.155 13.2938 47.1159L12.111 45.5433C12.0483 45.4572 12.111 45.332 12.2128 45.332H13.5993C13.6385 45.332 13.6777 45.3477 13.7012 45.3868L14.884 46.9594C14.9545 47.0455 14.8918 47.1707 14.7822 47.1707Z" id="Vector_32"/>
<path fill="#0E2D68" d="M17.7665 47.1707H16.38C16.3409 47.1707 16.3017 47.155 16.2782 47.1159L15.0954 45.5433C15.0327 45.4572 15.0954 45.332 15.1972 45.332H16.5837C16.6229 45.332 16.662 45.3477 16.6855 45.3868L17.8684 46.9594C17.931 47.0455 17.8762 47.1707 17.7665 47.1707Z" id="Vector_33"/>
<path fill="#0E2D68" d="M20.7509 47.1707H19.3644C19.3252 47.1707 19.2861 47.155 19.2626 47.1159L18.0797 45.5433C18.0171 45.4572 18.0797 45.332 18.1816 45.332H19.5681C19.6072 45.332 19.6464 45.3477 19.6699 45.3868L20.8527 46.9594C20.9154 47.0455 20.8527 47.1707 20.7509 47.1707Z" id="Vector_34"/>
<path fill="#0E2D68" d="M23.7275 47.1707H22.341C22.3018 47.1707 22.2626 47.155 22.2391 47.1159L21.0563 45.5433C20.9936 45.4572 21.0563 45.332 21.1581 45.332H22.5446C22.5838 45.332 22.623 45.3477 22.6465 45.3868L23.8293 46.9594C23.8998 47.0455 23.8371 47.1707 23.7275 47.1707Z" id="Vector_35"/>
</g>
</g>
</g>
</svg>